<?xml version="1.0" standalone="no"?>
<!DOCTYPE svg PUBLIC "-//W3C//DTD SVG 20010904//EN"
 "http://www.w3.org/TR/2001/REC-SVG-20010904/DTD/svg10.dtd">
<svg version="1.0" xmlns="http://www.w3.org/2000/svg"
 width="96.000000pt" height="96.000000pt" viewBox="0 0 96.000000 96.000000"
 preserveAspectRatio="xMidYMid meet">
<metadata>
Created by potrace 1.14, written by Peter Selinger 2001-2017
</metadata>
<g transform="translate(0.000000,96.000000) scale(0.100000,-0.100000)"
fill="#000000" stroke="none">
<path d="M380 730 c-124 -8 -169 -25 -204 -76 -35 -51 -33 -64 7 -63 27 1 28
2 9 7 l-22 7 21 30 c35 50 66 66 142 77 96 14 311 5 357 -14 34 -14 90 -69 90
-88 0 -5 -15 -11 -32 -13 -29 -3 -28 -4 9 -5 23 -1 45 3 48 9 11 16 -36 76
-77 99 -34 19 -178 43 -228 38 -8 -1 -62 -4 -120 -8z"/>
<path d="M52 643 c2 -10 10 -18 18 -19 8 0 23 -4 33 -9 24 -10 31 -1 17 24
-14 28 -73 30 -68 4z"/>
<path d="M835 639 c-9 -27 -6 -29 35 -20 50 10 54 41 6 41 -26 0 -36 -5 -41
-21z"/>
<path d="M73 602 c-19 -12 -33 -59 -33 -110 0 -53 16 -118 30 -127 6 -4 5 6
-1 22 -16 42 -13 157 4 193 9 16 15 30 14 30 -1 0 -7 -4 -14 -8z"/>
<path d="M874 595 c8 -9 18 -31 22 -51 7 -40 1 -140 -11 -168 -6 -13 -5 -17 2
-13 18 11 36 106 29 155 -6 48 -29 92 -47 92 -6 0 -4 -7 5 -15z"/>
<path d="M91 545 c-1 -22 16 -45 33 -45 5 0 3 6 -6 13 -9 6 -18 21 -21 32 -5
20 -5 20 -6 0z"/>
<path d="M123 545 c-3 -9 -3 -19 1 -22 3 -4 6 1 6 10 0 25 24 21 60 -10 29
-24 31 -28 14 -34 -15 -6 -12 -8 11 -8 l30 0 -42 39 c-45 42 -70 50 -80 25z"/>
<path d="M757 520 c-40 -38 -41 -40 -17 -40 17 0 21 3 12 9 -10 6 -6 15 19 35
17 15 38 25 45 22 8 -3 14 -1 14 4 0 22 -33 8 -73 -30z"/>
<path d="M856 547 c3 -10 9 -15 12 -12 3 3 0 11 -7 18 -10 9 -11 8 -5 -6z"/>
<path d="M815 504 c-40 -14 -40 -14 -5 -9 19 3 39 10 44 15 12 12 12 12 -39
-6z"/>
<path d="M148 493 c6 -2 18 -2 25 0 6 3 1 5 -13 5 -14 0 -19 -2 -12 -5z"/>
<path d="M83 438 c6 -42 33 -88 56 -96 8 -3 5 7 -7 24 -11 16 -24 44 -27 63
-7 33 -7 34 21 27 44 -11 124 -47 124 -56 0 -4 13 -22 29 -39 23 -25 37 -31
68 -30 l38 1 -35 8 c-32 8 -66 37 -88 75 -11 20 -118 64 -156 65 -28 0 -28 -1
-23 -42z"/>
<path d="M773 459 c-52 -16 -67 -26 -90 -61 -17 -26 -41 -46 -63 -54 l-35 -12
29 -1 c23 -1 40 10 72 44 30 32 58 51 99 65 32 11 60 20 62 20 10 0 0 -51 -16
-83 -20 -39 -14 -49 11 -19 17 20 38 76 38 103 0 24 -26 24 -107 -2z"/>
<path d="M275 439 c-9 -14 24 -60 56 -77 17 -9 65 -12 162 -10 l139 3 24 29
c14 15 24 36 22 45 -3 14 -27 16 -200 19 -137 2 -199 -1 -203 -9z"/>
<path d="M348 313 c56 -2 148 -2 205 0 56 1 10 3 -103 3 -113 0 -159 -2 -102
-3z"/>
<path d="M82 228 c-2 -40 -10 -46 -30 -26 -9 9 -12 8 -12 -4 0 -9 6 -18 13
-21 26 -10 39 9 34 49 l-4 39 -1 -37z"/>
<path d="M119 233 c-5 -16 -11 -33 -13 -38 -2 -6 11 -11 30 -11 28 0 33 3 29
18 -3 10 -8 27 -11 38 -8 28 -23 25 -35 -7z m25 -18 c3 -8 1 -15 -4 -15 -6 0
-10 7 -10 15 0 8 2 15 4 15 2 0 6 -7 10 -15z"/>
<path d="M192 251 c-20 -12 -11 -65 12 -69 10 -2 23 2 30 8 8 9 6 11 -11 5
-20 -5 -23 -3 -23 20 0 23 3 25 22 19 20 -6 21 -5 9 10 -15 18 -20 19 -39 7z"/>
<path d="M261 229 c-15 -44 -15 -46 19 -46 17 0 30 3 30 7 0 17 -23 70 -30 70
-4 0 -13 -14 -19 -31z m29 -19 c0 -5 -4 -10 -10 -10 -5 0 -10 5 -10 10 0 6 5
10 10 10 6 0 10 -4 10 -10z"/>
<path d="M331 218 c0 -32 2 -38 9 -23 7 18 8 19 15 3 12 -30 23 -20 22 20 -2
30 -6 38 -24 40 -21 3 -23 -1 -22 -40z m34 12 c-3 -5 -10 -10 -16 -10 -5 0 -9
5 -9 10 0 6 7 10 16 10 8 0 12 -4 9 -10z"/>
<path d="M411 229 c-15 -44 -15 -44 19 -45 17 -1 30 2 30 6 0 17 -23 70 -30
70 -4 0 -13 -14 -19 -31z m29 -19 c0 -5 -4 -10 -10 -10 -5 0 -10 5 -10 10 0 6
5 10 10 10 6 0 10 -4 10 -10z"/>
<path d="M477 254 c-11 -11 -8 -74 3 -74 6 0 10 10 10 22 l0 22 16 -22 c8 -12
19 -22 25 -22 12 0 12 67 -1 75 -6 3 -10 -4 -10 -17 l0 -23 -18 23 c-10 13
-21 20 -25 16z"/>
<path d="M550 219 c0 -38 1 -40 28 -37 21 2 28 9 30 32 4 30 -10 46 -40 46
-14 0 -18 -9 -18 -41z m40 -4 c0 -14 -4 -25 -10 -25 -5 0 -10 11 -10 25 0 14
5 25 10 25 6 0 10 -11 10 -25z"/>
<path d="M637 253 c-3 -5 -8 -21 -11 -38 -6 -28 -4 -30 24 -31 34 -1 34 0 19
45 -11 30 -23 39 -32 24z m23 -43 c0 -5 -4 -10 -10 -10 -5 0 -10 5 -10 10 0 6
5 10 10 10 6 0 10 -4 10 -10z"/>
<path d="M727 243 c-9 -9 -9 -51 1 -56 4 -3 7 10 7 29 0 19 0 34 -1 34 0 0 -4
-3 -7 -7z"/>
</g>
</svg>
